# MagicaVoxel @ Ephtracy

# group
g BlockPartyAvatar

# material
mtllib BlockPartyAvatar.mtl
usemtl palette

# normals
vn -1 0 0
vn 1 0 0
vn 0 0 1
vn 0 0 -1
vn 0 -1 0
vn 0 1 0

# texcoords
vt 0.306641 0.5
vt 0.958984 0.5
vt 0.994141 0.5

# verts
v -20 0 20
v -20 0 -20
v -20 1 19
v -20 1 -19
v -20 39 19
v -20 39 -19
v -20 40 20
v -20 40 -20
v -19 1 19
v -19 1 -19
v -19 39 19
v -19 39 -19
v 19 0 19
v 19 0 -19
v 19 1 20
v 19 1 19
v 19 1 -19
v 19 1 -20
v 19 39 20
v 19 39 19
v 19 39 -19
v 19 39 -20
v 19 40 19
v 19 40 -19
v -19 0 19
v -19 0 -19
v -19 1 20
v -19 1 19
v -19 1 -19
v -19 1 -20
v -19 39 20
v -19 39 19
v -19 39 -19
v -19 39 -20
v -19 40 19
v -19 40 -19
v 19 1 19
v 19 1 -19
v 19 8 16
v 19 8 -16
v 19 12 14
v 19 12 -14
v 19 14 16
v 19 14 14
v 19 14 -14
v 19 14 -16
v 19 15 6
v 19 15 -6
v 19 22 6
v 19 22 -6
v 19 25 15
v 19 25 3
v 19 25 -3
v 19 25 -15
v 19 35 15
v 19 35 3
v 19 35 -3
v 19 35 -15
v 19 39 19
v 19 39 -19
v 20 0 20
v 20 0 -20
v 20 1 19
v 20 1 -19
v 20 8 16
v 20 8 -16
v 20 9 14
v 20 9 -14
v 20 11 14
v 20 11 -14
v 20 12 14
v 20 12 -14
v 20 14 16
v 20 14 14
v 20 14 -14
v 20 14 -16
v 20 15 6
v 20 15 -6
v 20 22 6
v 20 22 -6
v 20 25 15
v 20 25 3
v 20 25 -3
v 20 25 -15
v 20 28 12
v 20 28 7
v 20 28 -7
v 20 28 -12
v 20 32 12
v 20 32 7
v 20 32 -7
v 20 32 -12
v 20 35 15
v 20 35 3
v 20 35 -3
v 20 35 -15
v 20 39 19
v 20 39 -19
v 20 40 20
v 20 40 -20
v -20 0 20
v -20 40 20
v -19 1 20
v -19 39 20
v 19 1 20
v 19 39 20
v 20 0 20
v 20 40 20
v -19 1 19
v -19 39 19
v 19 1 19
v 19 39 19
v 19 8 16
v 19 14 16
v 20 8 16
v 20 14 16
v 19 25 15
v 19 35 15
v 20 25 15
v 20 35 15
v 19 15 6
v 19 22 6
v 20 15 6
v 20 22 6
v 19 25 -3
v 19 35 -3
v 20 25 -3
v 20 35 -3
v 19 12 -14
v 19 14 -14
v 20 12 -14
v 20 14 -14
v -20 1 -19
v -20 39 -19
v -19 0 -19
v -19 1 -19
v -19 39 -19
v -19 40 -19
v 19 0 -19
v 19 1 -19
v 19 39 -19
v 19 40 -19
v 20 1 -19
v 20 39 -19
v -20 1 19
v -20 39 19
v -19 0 19
v -19 1 19
v -19 39 19
v -19 40 19
v 19 0 19
v 19 1 19
v 19 39 19
v 19 40 19
v 20 1 19
v 20 39 19
v 19 12 14
v 19 14 14
v 20 12 14
v 20 14 14
v 19 25 3
v 19 35 3
v 20 25 3
v 20 35 3
v 19 15 -6
v 19 22 -6
v 20 15 -6
v 20 22 -6
v 19 25 -15
v 19 35 -15
v 20 25 -15
v 20 35 -15
v 19 8 -16
v 19 14 -16
v 20 8 -16
v 20 14 -16
v -19 1 -19
v -19 39 -19
v 19 1 -19
v 19 39 -19
v -20 0 -20
v -20 40 -20
v -19 1 -20
v -19 39 -20
v 19 1 -20
v 19 39 -20
v 20 0 -20
v 20 40 -20
v -20 0 20
v 20 0 20
v -19 0 19
v 19 0 19
v -19 0 -19
v 19 0 -19
v -20 0 -20
v 20 0 -20
v -19 1 19
v 19 1 19
v -19 1 -19
v 19 1 -19
v 19 8 16
v 20 8 16
v 19 8 -16
v 20 8 -16
v 19 15 6
v 20 15 6
v 19 15 -6
v 20 15 -6
v 19 25 15
v 20 25 15
v 19 25 3
v 20 25 3
v 19 25 -3
v 20 25 -3
v 19 25 -15
v 20 25 -15
v -19 39 20
v 19 39 20
v -20 39 19
v -19 39 19
v 19 39 19
v 20 39 19
v -20 39 -19
v -19 39 -19
v 19 39 -19
v 20 39 -19
v -19 39 -20
v 19 39 -20
v -19 1 20
v 19 1 20
v -20 1 19
v -19 1 19
v 19 1 19
v 20 1 19
v -20 1 -19
v -19 1 -19
v 19 1 -19
v 20 1 -19
v -19 1 -20
v 19 1 -20
v 19 12 14
v 20 12 14
v 19 12 -14
v 20 12 -14
v 19 14 16
v 20 14 16
v 19 14 14
v 20 14 14
v 19 14 -14
v 20 14 -14
v 19 14 -16
v 20 14 -16
v 19 22 6
v 20 22 6
v 19 22 -6
v 20 22 -6
v 19 35 15
v 20 35 15
v 19 35 3
v 20 35 3
v 19 35 -3
v 20 35 -3
v 19 35 -15
v 20 35 -15
v -19 39 19
v 19 39 19
v -19 39 -19
v 19 39 -19
v -20 40 20
v 20 40 20
v -19 40 19
v 19 40 19
v -19 40 -19
v 19 40 -19
v -20 40 -20
v 20 40 -20

# faces
f 3/1/1 2/1/1 1/1/1
f 4/1/1 2/1/1 3/1/1
f 5/1/1 3/1/1 1/1/1
f 6/1/1 2/1/1 4/1/1
f 7/1/1 5/1/1 1/1/1
f 7/1/1 6/1/1 5/1/1
f 8/1/1 2/1/1 6/1/1
f 8/1/1 6/1/1 7/1/1
f 11/1/1 10/1/1 9/1/1
f 12/1/1 10/1/1 11/1/1
f 16/1/1 14/1/1 13/1/1
f 17/1/1 14/1/1 16/1/1
f 19/1/1 16/1/1 15/1/1
f 20/1/1 16/1/1 19/1/1
f 21/1/1 18/1/1 17/1/1
f 22/1/1 18/1/1 21/1/1
f 23/1/1 21/1/1 20/1/1
f 24/1/1 21/1/1 23/1/1
f 25/1/2 26/1/2 28/1/2
f 28/1/2 26/1/2 29/1/2
f 27/1/2 28/1/2 31/1/2
f 31/1/2 28/1/2 32/1/2
f 29/1/2 30/1/2 33/1/2
f 33/1/2 30/1/2 34/1/2
f 32/1/2 33/1/2 35/1/2
f 35/1/2 33/1/2 36/1/2
f 37/1/2 38/1/2 39/1/2
f 39/1/2 38/1/2 40/1/2
f 37/1/2 39/1/2 43/1/2
f 41/1/2 42/1/2 44/1/2
f 44/1/2 42/1/2 45/1/2
f 40/1/2 38/1/2 46/1/2
f 44/1/2 45/1/2 47/1/2
f 45/1/2 46/1/2 47/1/2
f 43/1/2 44/1/2 47/1/2
f 47/1/2 46/1/2 48/1/2
f 43/1/2 47/1/2 49/1/2
f 48/1/2 46/1/2 50/1/2
f 43/1/2 49/1/2 51/1/2
f 49/1/2 50/1/2 51/1/2
f 51/1/2 50/1/2 52/1/2
f 52/1/2 50/1/2 53/1/2
f 50/1/2 46/1/2 54/1/2
f 53/1/2 50/1/2 54/1/2
f 43/1/2 51/1/2 55/1/2
f 52/1/2 53/1/2 56/1/2
f 56/1/2 53/1/2 57/1/2
f 54/1/2 46/1/2 58/1/2
f 37/1/2 43/1/2 59/1/2
f 57/1/2 58/1/2 59/1/2
f 43/1/2 55/1/2 59/1/2
f 56/1/2 57/1/2 59/1/2
f 55/1/2 56/1/2 59/1/2
f 58/1/2 46/1/2 60/1/2
f 59/1/2 58/1/2 60/1/2
f 46/1/2 38/1/2 60/1/2
f 61/1/2 62/1/2 63/1/2
f 63/1/2 62/1/2 64/1/2
f 65/1/2 66/1/2 67/1/2
f 67/1/2 66/1/2 68/1/2
f 65/1/2 67/1/2 69/1/2
f 67/2/2 68/2/2 69/2/2
f 68/1/2 66/1/2 70/1/2
f 69/2/2 68/2/2 70/2/2
f 65/1/2 69/1/2 71/1/2
f 69/1/2 70/1/2 71/1/2
f 70/1/2 66/1/2 72/1/2
f 71/1/2 70/1/2 72/1/2
f 65/1/2 71/1/2 73/1/2
f 73/1/2 71/1/2 74/1/2
f 72/1/2 66/1/2 75/1/2
f 75/1/2 66/1/2 76/1/2
f 77/1/2 78/1/2 79/1/2
f 79/1/2 78/1/2 80/1/2
f 81/2/2 82/2/2 85/2/2
f 85/2/2 82/2/2 86/2/2
f 83/2/2 84/2/2 87/2/2
f 87/2/2 84/2/2 88/2/2
f 81/2/2 85/2/2 89/2/2
f 85/3/2 86/3/2 89/3/2
f 86/2/2 82/2/2 90/2/2
f 89/3/2 86/3/2 90/3/2
f 87/3/2 88/3/2 91/3/2
f 83/2/2 87/2/2 91/2/2
f 88/2/2 84/2/2 92/2/2
f 91/3/2 88/3/2 92/3/2
f 81/2/2 89/2/2 93/2/2
f 89/2/2 90/2/2 93/2/2
f 90/2/2 82/2/2 94/2/2
f 93/2/2 90/2/2 94/2/2
f 83/2/2 91/2/2 95/2/2
f 91/2/2 92/2/2 95/2/2
f 92/2/2 84/2/2 96/2/2
f 95/2/2 92/2/2 96/2/2
f 61/1/2 63/1/2 97/1/2
f 64/1/2 62/1/2 98/1/2
f 61/1/2 97/1/2 99/1/2
f 97/1/2 98/1/2 99/1/2
f 98/1/2 62/1/2 100/1/2
f 99/1/2 98/1/2 100/1/2
f 103/1/3 102/1/3 101/1/3
f 104/1/3 102/1/3 103/1/3
f 105/1/3 103/1/3 101/1/3
f 106/1/3 102/1/3 104/1/3
f 107/1/3 105/1/3 101/1/3
f 107/1/3 106/1/3 105/1/3
f 108/1/3 102/1/3 106/1/3
f 108/1/3 106/1/3 107/1/3
f 111/1/3 110/1/3 109/1/3
f 112/1/3 110/1/3 111/1/3
f 115/1/3 114/1/3 113/1/3
f 116/1/3 114/1/3 115/1/3
f 119/2/3 118/2/3 117/2/3
f 120/2/3 118/2/3 119/2/3
f 123/1/3 122/1/3 121/1/3
f 124/1/3 122/1/3 123/1/3
f 127/2/3 126/2/3 125/2/3
f 128/2/3 126/2/3 127/2/3
f 131/1/3 130/1/3 129/1/3
f 132/1/3 130/1/3 131/1/3
f 136/1/3 134/1/3 133/1/3
f 137/1/3 134/1/3 136/1/3
f 139/1/3 136/1/3 135/1/3
f 140/1/3 136/1/3 139/1/3
f 141/1/3 138/1/3 137/1/3
f 142/1/3 138/1/3 141/1/3
f 143/1/3 141/1/3 140/1/3
f 144/1/3 141/1/3 143/1/3
f 145/1/4 146/1/4 148/1/4
f 148/1/4 146/1/4 149/1/4
f 147/1/4 148/1/4 151/1/4
f 151/1/4 148/1/4 152/1/4
f 149/1/4 150/1/4 153/1/4
f 153/1/4 150/1/4 154/1/4
f 152/1/4 153/1/4 155/1/4
f 155/1/4 153/1/4 156/1/4
f 157/1/4 158/1/4 159/1/4
f 159/1/4 158/1/4 160/1/4
f 161/2/4 162/2/4 163/2/4
f 163/2/4 162/2/4 164/2/4
f 165/1/4 166/1/4 167/1/4
f 167/1/4 166/1/4 168/1/4
f 169/2/4 170/2/4 171/2/4
f 171/2/4 170/2/4 172/2/4
f 173/1/4 174/1/4 175/1/4
f 175/1/4 174/1/4 176/1/4
f 177/1/4 178/1/4 179/1/4
f 179/1/4 178/1/4 180/1/4
f 181/1/4 182/1/4 183/1/4
f 183/1/4 182/1/4 184/1/4
f 181/1/4 183/1/4 185/1/4
f 184/1/4 182/1/4 186/1/4
f 181/1/4 185/1/4 187/1/4
f 185/1/4 186/1/4 187/1/4
f 186/1/4 182/1/4 188/1/4
f 187/1/4 186/1/4 188/1/4
f 191/1/5 190/1/5 189/1/5
f 192/1/5 190/1/5 191/1/5
f 193/1/5 191/1/5 189/1/5
f 194/1/5 190/1/5 192/1/5
f 195/1/5 193/1/5 189/1/5
f 195/1/5 194/1/5 193/1/5
f 196/1/5 190/1/5 194/1/5
f 196/1/5 194/1/5 195/1/5
f 199/1/5 198/1/5 197/1/5
f 200/1/5 198/1/5 199/1/5
f 203/1/5 202/1/5 201/1/5
f 204/1/5 202/1/5 203/1/5
f 207/1/5 206/1/5 205/1/5
f 208/1/5 206/1/5 207/1/5
f 211/2/5 210/2/5 209/2/5
f 212/2/5 210/2/5 211/2/5
f 215/2/5 214/2/5 213/2/5
f 216/2/5 214/2/5 215/2/5
f 220/1/5 218/1/5 217/1/5
f 221/1/5 218/1/5 220/1/5
f 223/1/5 220/1/5 219/1/5
f 224/1/5 220/1/5 223/1/5
f 225/1/5 222/1/5 221/1/5
f 226/1/5 222/1/5 225/1/5
f 227/1/5 225/1/5 224/1/5
f 228/1/5 225/1/5 227/1/5
f 229/1/6 230/1/6 232/1/6
f 232/1/6 230/1/6 233/1/6
f 231/1/6 232/1/6 235/1/6
f 235/1/6 232/1/6 236/1/6
f 233/1/6 234/1/6 237/1/6
f 237/1/6 234/1/6 238/1/6
f 236/1/6 237/1/6 239/1/6
f 239/1/6 237/1/6 240/1/6
f 241/1/6 242/1/6 243/1/6
f 243/1/6 242/1/6 244/1/6
f 245/1/6 246/1/6 247/1/6
f 247/1/6 246/1/6 248/1/6
f 249/1/6 250/1/6 251/1/6
f 251/1/6 250/1/6 252/1/6
f 253/1/6 254/1/6 255/1/6
f 255/1/6 254/1/6 256/1/6
f 257/2/6 258/2/6 259/2/6
f 259/2/6 258/2/6 260/2/6
f 261/2/6 262/2/6 263/2/6
f 263/2/6 262/2/6 264/2/6
f 265/1/6 266/1/6 267/1/6
f 267/1/6 266/1/6 268/1/6
f 269/1/6 270/1/6 271/1/6
f 271/1/6 270/1/6 272/1/6
f 269/1/6 271/1/6 273/1/6
f 272/1/6 270/1/6 274/1/6
f 269/1/6 273/1/6 275/1/6
f 273/1/6 274/1/6 275/1/6
f 274/1/6 270/1/6 276/1/6
f 275/1/6 274/1/6 276/1/6
